<svg width="276" height="64" viewBox="0 0 276 64" fill="none" xmlns="http://www.w3.org/2000/svg">
<path fill-rule="evenodd" clip-rule="evenodd" d="M64 0H0V64H64V0ZM33.0294 21.8156C37.9352 18.8721 42.1451 17.549 45.9727 17.6021L47.9725 17.6299L48.028 13.6303L46.0282 13.6025C41.2087 13.5356 36.262 15.2113 30.9714 18.3856C26.8935 20.8324 23.2963 22.1595 20.0004 22.5072V26.5253C24.1813 26.1681 28.4781 24.5464 33.0294 21.8156ZM16.0004 26.4725V22.439C13.0605 22.0121 10.175 20.7315 7.20044 18.5006L5.60044 17.3006L3.20044 20.5006L4.80044 21.7006C8.39173 24.3941 12.082 26.0224 16.0004 26.4725ZM44.0004 29.694V25.6758C39.8196 26.0331 35.5228 27.6548 30.9714 30.3856C26.1602 33.2724 22.018 34.6006 18.2504 34.6006C14.5187 34.6006 10.9295 33.2974 7.20044 30.5006L5.60044 29.3006L3.20044 32.5006L4.80044 33.7006C9.07135 36.9038 13.4822 38.6006 18.2504 38.6006C22.9829 38.6006 27.8407 36.9288 33.0294 33.8156C37.1073 31.3688 40.7046 30.0417 44.0004 29.694ZM48.0004 29.7622V25.7287C51.9189 26.1788 55.6091 27.8071 59.2004 30.5006L60.8004 31.7006L58.4004 34.9006L56.8004 33.7006C53.8259 31.4697 50.9403 30.1891 48.0004 29.7622ZM45.75 41.6006C42.408 41.6006 38.7714 42.6456 34.6345 44.8965L32.8447 41.3169C37.3362 38.8914 41.5915 37.6006 45.75 37.6006C50.5182 37.6006 54.929 39.2974 59.2 42.5006L60.7999 43.7006L58.3999 46.9006L56.7999 45.7006C53.0709 42.9038 49.4817 41.6006 45.75 41.6006ZM5.59995 41.3006L7.19995 42.5006C10.176 44.7327 13.062 46.0125 16.0004 46.4391V50.4725C12.08 50.0223 8.38992 48.3931 4.79995 45.7006L3.19995 44.5006L5.59995 41.3006Z" fill="#696E72"/>
<path d="M80 15.2H85.328L88.784 41.264H88.88L92.336 15.2H97.184L92.096 48.8H85.088L80 15.2Z" fill="#696E72"/>
<path d="M112.058 49.28C109.466 49.28 107.482 48.544 106.106 47.072C104.73 45.6 104.042 43.52 104.042 40.832V23.168C104.042 20.48 104.73 18.4 106.106 16.928C107.482 15.456 109.466 14.72 112.058 14.72C114.65 14.72 116.634 15.456 118.01 16.928C119.386 18.4 120.074 20.48 120.074 23.168V40.832C120.074 43.52 119.386 45.6 118.01 47.072C116.634 48.544 114.65 49.28 112.058 49.28ZM112.058 44.48C113.882 44.48 114.794 43.376 114.794 41.168V22.832C114.794 20.624 113.882 19.52 112.058 19.52C110.234 19.52 109.322 20.624 109.322 22.832V41.168C109.322 43.376 110.234 44.48 112.058 44.48Z" fill="#696E72"/>
<path d="M128.445 15.2H133.725V44H142.413V48.8H128.445V15.2Z" fill="#696E72"/>
<path d="M157.425 49.28C154.865 49.28 152.913 48.56 151.569 47.12C150.225 45.648 149.553 43.552 149.553 40.832V15.2H154.833V41.216C154.833 42.368 155.057 43.2 155.505 43.712C155.985 44.224 156.657 44.48 157.521 44.48C158.385 44.48 159.041 44.224 159.489 43.712C159.969 43.2 160.209 42.368 160.209 41.216V15.2H165.297V40.832C165.297 43.552 164.625 45.648 163.281 47.12C161.937 48.56 159.985 49.28 157.425 49.28Z" fill="#696E72"/>
<path d="M173.858 15.2H181.394L184.754 39.248H184.85L188.21 15.2H195.746V48.8H190.754V23.36H190.658L186.818 48.8H182.402L178.562 23.36H178.466V48.8H173.858V15.2Z" fill="#696E72"/>
<path d="M204.486 15.2H209.766V48.8H204.486V15.2Z" fill="#696E72"/>
<path d="M218.52 15.2H223.8V29.36L230.52 15.2H235.8L229.512 27.536L235.896 48.8H230.376L225.912 33.824L223.8 38.096V48.8H218.52V15.2Z" fill="#696E72"/>
<path d="M247.275 15.2H254.427L259.899 48.8H254.619L253.659 42.128V42.224H247.659L246.699 48.8H241.803L247.275 15.2ZM253.035 37.664L250.683 21.056H250.587L248.283 37.664H253.035Z" fill="#696E72"/>
</svg>
