<svg width="48" height="48" viewBox="0 0 48 48" fill="none" xmlns="http://www.w3.org/2000/svg">
<path fill-rule="evenodd" clip-rule="evenodd" d="M48 0H0V48H48V0ZM9.00009 20.7914V6L25.6913 15.1043L9.71837 23.8168L9 24.2087V20.7914L9.00009 20.7914ZM27.7818 19.5468L30.8088 17.8957L33.9413 19.6043L29.2184 22.1805L27.9015 22.8988L26.465 20.2651L27.7818 19.5468ZM18.7818 33.4559L39.0589 22.3957L42 23.9999L15.8138 38.2834L14.465 35.8105L15.7818 35.0922L18.7818 33.4559ZM9.71837 32.8168L9 33.2087V29.7914L21.7818 22.8195L23.0987 22.1012L24.5352 24.7349L23.2184 25.4532L9.71837 32.8168Z" fill="#E3CAB3"/>
</svg>
