<svg width="160" height="100" viewBox="0 0 160 100" fill="none" xmlns="http://www.w3.org/2000/svg">
<path fill-rule="evenodd" clip-rule="evenodd" d="M160 0H0V100H160V0ZM82.5743 24.5375C94.8386 17.1789 105.364 13.871 114.932 14.0039L119.932 14.0733L120.071 4.07426L115.071 4.00483C103.023 3.83748 90.6558 8.02667 77.4294 15.9626C67.2346 22.0794 58.2416 25.3972 50.002 26.2665V36.3119C60.4541 35.4188 71.196 31.3645 82.5743 24.5375ZM40.002 36.1797V26.096C32.6522 25.0288 25.4383 21.8274 18.0018 16.25L14.0018 13.25L8.00183 21.25L12.0018 24.25C20.9801 30.9837 30.2057 35.0547 40.002 36.1797ZM110.002 44.2335V34.1881C99.5498 35.0811 88.8078 39.1355 77.4294 45.9626C65.4011 53.1795 55.0457 56.5 45.6268 56.5C36.2974 56.5 27.3246 53.2421 18.0018 46.25L14.0018 43.25L8.00183 51.25L12.0018 54.25C22.6791 62.258 33.7062 66.5 45.6268 66.5C57.4579 66.5 69.6025 62.3206 82.5743 54.5375C92.7691 48.4206 101.762 45.1028 110.002 44.2335ZM120.002 44.4041V34.3204C129.798 35.4455 139.024 39.5164 148.002 46.25L152.002 49.25L146.002 57.25L142.002 54.25C134.565 48.6727 127.352 45.4713 120.002 44.4041ZM114.375 74C106.02 74 96.929 76.6125 86.5869 82.2395L82.1123 73.2904C93.341 67.227 103.979 64 114.375 64C126.296 64 137.323 68.2421 148 76.25L152 79.25L146 87.25L142 84.25C132.677 77.258 123.704 74 114.375 74ZM14 73.25L18 76.25C25.4405 81.8304 32.6555 85.03 40.002 86.0963V96.1799C30.2006 95.0546 20.9751 90.9814 12 84.25L8 81.25L14 73.25Z" fill="#E3CAB3"/>
</svg>
